<svg width="62" height="62" viewBox="0 0 62 62" fill="none" xmlns="http://www.w3.org/2000/svg">
<g clip-path="url(#clip0_1964_370)">
<g clip-path="url(#clip1_1964_370)">
<g clip-path="url(#clip2_1964_370)">
<path fill-rule="evenodd" clip-rule="evenodd" d="M60.447 51.3384C60.447 56.4134 56.3368 60.5236 51.2618 60.5236H10.5846C5.5578 60.5236 1.47656 56.4424 1.47656 51.4156V10.3331C1.47656 5.48002 5.40342 1.55316 10.2565 1.55316H51.667C56.5201 1.55316 60.447 5.48002 60.447 10.3331V51.3384Z" fill="#FFC226"/>
<path d="M7.04321 24.5066V39.4904L4.37063 40.0886V25.1048L7.04321 24.5066ZM14.1154 26.4362C12.4656 26.8029 11.4525 28.665 11.4525 28.665V27.266L8.85709 27.8352V36.7792C9.17549 36.6538 9.51318 36.5863 9.87981 36.5863C10.4587 36.5863 10.999 36.7599 11.4428 37.059V32.698C11.4621 30.6043 12.0603 29.3886 13.3146 29.1088C14.4145 28.858 14.8294 29.6781 14.8101 30.942V37.773L17.3572 37.1941L17.3765 30.392C17.3958 27.0537 16.0547 26.0021 14.1154 26.4362ZM17.9747 25.7898L19.4316 25.4618V23.3681L22.0174 22.7892V24.8829L23.8602 24.468L23.8313 26.7353L21.9884 27.1502L21.9788 32.8234C21.9884 33.5181 22.1139 33.9426 22.8857 33.769C23.1848 33.7014 23.4357 33.6242 23.7058 33.5181L23.7155 35.6504C23.069 35.9591 22.6831 36.0749 22.1525 36.2003C20.6763 36.538 19.4027 35.5828 19.4027 33.6146L19.4123 27.7291L17.9554 28.0572L17.9747 25.7898ZM26.967 30.0833C26.967 30.3245 26.9573 30.5175 26.9959 30.749C27.1889 31.8972 27.7581 32.7945 28.9159 32.534C29.9869 32.2928 30.3342 31.5884 30.5465 30.8069L33.248 30.1991C32.9682 31.9358 32.0323 34.1163 29.0703 34.782C26.417 35.3802 24.8154 33.8461 24.3812 31.2314C23.8988 28.3659 24.6417 24.1013 28.5686 23.2234C31.4631 22.5769 32.8235 24.2847 33.1901 26.5038C33.3348 27.3818 33.3252 28.0379 33.277 28.6746L26.967 30.0833ZM30.7298 27.266C30.7394 27.073 30.7105 26.8994 30.6912 26.7739C30.5368 25.8284 30.0158 25.1048 28.8677 25.3556C27.6906 25.6161 27.102 26.6196 26.9959 28.0957L30.7298 27.266ZM39.6834 23.9663C37.8888 24.3908 37.0205 25.6451 37.0108 28.1054L36.9915 32.7752L34.4154 33.3541V22.1041L36.9047 21.5445C36.9337 21.8243 36.9915 22.6541 36.9915 23.5707C37.4064 22.1331 37.9853 21.3902 39.6931 21.0042V23.9663H39.6834ZM48.8493 30.0351H48.8397L46.2539 30.6236C46.0802 30.2956 45.8969 29.7842 45.8197 29.4272C45.4531 30.2087 44.9514 31.0964 43.1279 31.5112C41.1886 31.9454 40.0886 30.6236 39.8571 29.3597C39.2878 26.3591 41.4394 24.9022 43.6489 24.3426C44.44 24.1399 45.1058 24.0242 45.8583 23.8312L45.8197 23.1558C45.8004 22.3357 45.6171 21.3323 44.2278 21.641C42.9928 21.9208 42.9349 22.7023 42.8191 23.2716L40.1851 23.8601C40.2141 22.0463 41.0052 20.2999 44.0638 19.6149C46.4565 19.0746 48.4441 19.7886 48.4248 22.7216V28.0572C48.4248 28.0572 48.4923 28.9544 48.5888 29.3886C48.6756 29.8228 48.8493 30.0351 48.8493 30.0351ZM45.8101 25.6451C45.1637 25.7898 44.6234 25.9538 44.1216 26.1371C42.7226 26.7064 42.2595 27.3625 42.4332 28.2791C42.549 28.9062 43.0024 29.3018 43.8418 29.1185C45.6268 28.7132 45.7812 27.0344 45.8101 25.8284V25.6451ZM58.1503 24.2075C58.0056 26.3687 57.0021 28.3562 54.098 29.0123C51.6087 29.5719 49.9975 28.2598 49.515 25.674C48.9265 22.548 49.8141 18.2834 53.4612 17.4633C56.6451 16.7493 57.9187 19.0456 58.0441 20.4543L55.5356 21.0139C55.3619 20.1841 54.947 19.3833 53.7892 19.6438C51.9657 20.0491 51.8113 23.2137 52.1394 24.9504C52.4192 26.4555 53.1042 26.9958 54.0305 26.7836C54.8795 26.5906 55.3716 25.9345 55.5742 24.7864L58.1503 24.2075ZM15.7846 43.3497L12.1375 40.8605C12.1375 40.8605 12.1375 46.688 12.1375 46.9582C12.1375 47.1415 11.9831 47.2959 11.7998 47.2959C11.6165 47.2959 11.4621 47.1415 11.4621 46.9582C11.4621 46.8906 11.4525 40.2912 11.4525 39.4807C11.4525 38.6124 10.7482 37.9177 9.88946 37.9177C9.02111 37.9177 8.31679 38.622 8.31679 39.4807V52.506C8.31679 54.8409 10.2175 56.7512 12.562 56.7512H12.8418C15.1478 56.7512 17.0003 54.8794 17.0003 52.5735C17.0003 52.5735 17.0003 45.7714 17.0003 45.7039C17.0003 44.797 16.4985 43.89 15.7846 43.3497ZM5.19074 41.4008C4.5443 41.5551 4.14872 42.2016 4.30309 42.848C4.45746 43.4944 5.1039 43.89 5.75034 43.7356L7.57387 43.3015V40.8219L5.19074 41.4008ZM5.19074 44.5943C4.5443 44.7487 4.14872 45.3952 4.30309 46.0416C4.45746 46.688 5.1039 47.0836 5.75034 46.9292L7.57387 46.4951V44.0251L5.19074 44.5943ZM4.30309 49.2352C4.45746 49.8816 5.1039 50.2772 5.75034 50.1228L7.57387 49.6887V47.209L5.19074 47.7879C4.5443 47.9423 4.14872 48.5887 4.30309 49.2352Z" fill="#282829"/>
</g>
</g>
</g>
<defs>
<clipPath id="clip0_1964_370">
<rect width="62" height="62" fill="white"/>
</clipPath>
<clipPath id="clip1_1964_370">
<rect width="62" height="62" fill="white"/>
</clipPath>
<clipPath id="clip2_1964_370">
<rect width="59.0476" height="59.0476" fill="white" transform="translate(1.47656 1.47656)"/>
</clipPath>
</defs>
</svg>
